<svg width="353" height="353" viewBox="0 0 353 353" fill="none" xmlns="http://www.w3.org/2000/svg">
<g clip-path="url(#clip0_74:2)">
<path d="M318.54 57.282H270.888V15C270.888 6.716 264.172 0 255.888 0H34.264C25.98 0 19.264 6.716 19.264 15V280.522C19.264 288.806 25.98 295.522 34.264 295.522H81.915V337.803C81.915 346.087 88.631 352.803 96.915 352.803H318.54C326.824 352.803 333.54 346.087 333.54 337.803V72.282C333.54 63.998 326.824 57.282 318.54 57.282ZM49.264 265.522V30H240.887V57.282H96.916C88.632 57.282 81.916 63.998 81.916 72.282V265.522H49.264ZM303.54 322.804H111.916V87.282H303.54V322.804Z" fill="#EBF2FA"/>
</g>
<defs>
<clipPath id="clip0_74:2">
<rect width="352.804" height="352.804" fill="white"/>
</clipPath>
</defs>
</svg>
