<svg width="32" height="32" viewBox="0 0 32 32" fill="none" xmlns="http://www.w3.org/2000/svg">
<path d="M2 15.6231C2 13.2543 2 12.0699 2.54892 11.0287C3.09785 9.98761 4.12873 9.2168 6.1905 7.67517L8.1905 6.17972C11.9171 3.39324 13.7805 2 16 2C18.2195 2 20.0829 3.39324 23.8095 6.17972L25.8095 7.67517C27.8713 9.2168 28.9022 9.98761 29.4511 11.0287C30 12.0699 30 13.2543 30 15.6231V23.0213C30 26.3111 30 27.956 28.8284 28.978C27.6569 30 25.7712 30 22 30H10C6.22876 30 4.34315 30 3.17157 28.978C2 27.956 2 26.3111 2 23.0213V15.6231Z" stroke="#E16F7C" stroke-width="3"/>
<path d="M20.6667 30V20.1111C20.6667 19.5588 20.2189 19.1111 19.6667 19.1111H10.7778C10.2255 19.1111 9.77777 19.5588 9.77777 20.1111V30" stroke="#E16F7C" stroke-width="3" stroke-linecap="round" stroke-linejoin="round"/>
</svg>
